#!OML:ASF X:\für Bonn\!DataBase\2005_08_10_Bjorn_Final\c3d\bjorn.ASF
:FULLY-SPECIFIED
:DEGREES
232
root 1.51959 18.6712 2.52899 -186.354 -8.2713 -208.593
lowerback 8.35452 -3.40562 10.2704
upperback 15.5689 -7.44023 -1.90705
thorax 11.145 -3.61389 -8.05191
lowerneck -1.17577 12.7712 1.66321
upperneck 4.05308 17.7941 -22.0441
head 3.61598 7.93053 -6.13689
rclavicle 7.63333e-014 7.31528e-014
rhumerus -63.7324 -37.1469 -31.9937
rradius 26.5361
rwrist -25.6212
rhand -17.8833 5.67605
rfingers 7.12502
rthumb 8.38297 -24.1376
lclavicle 7.63333e-014 7.31528e-014
lhumerus -9.4171 13.459 57.9186
lradius 68.0245
lwrist -25.1672
lhand -51.777 -29.2288
lfingers 7.12502
lthumb -24.2937 -0.74814
rfemur -7.41715 1.28231 -10.2433
rtibia 43.885
rfoot -26.0435 0.996997
rtoes -16.4752
lfemur -17.9238 -2.35695 -3.09778
ltibia 56.8112
lfoot 15.9656 -4.9093
ltoes 0.398645
233
root 1.52679 18.6727 2.55264 -186.19 -8.09736 -208.267
lowerback 8.25563 -3.31849 10.3353
upperback 15.5299 -7.31123 -1.86835
thorax 11.1826 -3.53408 -8.05666
lowerneck -1.16797 12.8133 1.63804
upperneck 4.1284 17.8645 -22.1319
head 3.65257 7.95211 -6.15348
rclavicle 6.36111e-015 -3.49861e-014
rhumerus -62.6399 -37.0154 -34.1513
rradius 27.0246
rwrist -25.5892
rhand -17.3749 5.95301
rfingers 7.12502
rthumb 8.87362 -23.8404
lclavicle 6.36111e-015 -3.49861e-014
lhumerus -9.67846 12.9309 58.6561
lradius 67.72
lwrist -25.4399
lhand -51.3616 -29.0489
lfingers 7.12502
lthumb -23.8954 -0.515524
rfemur -7.85888 1.11657 -9.84502
rtibia 44.0607
rfoot -26.0904 0.90317
rtoes -16.0832
lfemur -17.9198 -2.83092 -3.80533
ltibia 57.2014
lfoot 14.2564 -4.96802
ltoes -0.999412
234
root 1.5358 18.6758 2.57677 -186.007 -7.92237 -207.937
lowerback 8.15913 -3.2362 10.3772
upperback 15.4881 -7.18829 -1.83321
thorax 11.2148 -3.4601 -8.05135
lowerneck -1.18087 12.862 1.60411
upperneck 4.22175 17.9485 -22.2011
head 3.69724 7.97837 -6.16014
rclavicle -7.31528e-014 -1.30403e-013
rhumerus -61.2818 -36.6741 -36.6782
rradius 27.6527
rwrist -25.967
rhand -16.9033 5.9407
rfingers 7.12502
rthumb 9.32866 -23.8329
lclavicle -7.31528e-014 -1.30403e-013
lhumerus -10.0262 12.4439 59.3676
lradius 67.3823
lwrist -25.8292
lhand -50.8269 -29.0045
lfingers 7.12502
lthumb -23.3825 -0.404913
rfemur -8.31259 1.06543 -9.45135
rtibia 44.1938
rfoot -26.0863 0.993516
rtoes -15.0643
lfemur -17.9543 -3.2534 -4.54506
ltibia 57.5408
lfoot 12.5176 -4.9123
ltoes -3.19912
235
root 1.54583 18.6805 2.60192 -185.834 -7.74794 -207.57
lowerback 8.07912 -3.14968 10.4492
upperback 15.4653 -7.06563 -1.8021
thorax 11.2597 -3.38379 -8.06752
lowerneck -1.23282 12.9096 1.58633
upperneck 4.30163 18.0328 -22.2573
head 3.74492 8.00537 -6.16237
rclavicle 3.33958e-014 9.54166e-014
rhumerus -59.7917 -36.2387 -39.3721
rradius 28.2739
rwrist -26.2348
rhand -16.4386 5.80671
rfingers 7.12502
rthumb 9.77702 -23.9463
lclavicle 3.33958e-014 9.54166e-014
lhumerus -10.4403 11.9534 60.0607
lradius 67.0625
lwrist -26.2786
lhand -50.3063 -29.0121
lfingers 7.12502
lthumb -22.883 -0.349848
rfemur -8.748 1.12415 -9.019
rtibia 44.2858
rfoot -26.0501 1.20142
rtoes -13.6576
lfemur -18.0037 -3.64916 -5.271
ltibia 57.8243
lfoot 10.8073 -4.68931
ltoes -5.64204
236
root 1.55645 18.6873 2.62739 -185.659 -7.57995 -207.198
lowerback 8.02547 -3.06828 10.5139
upperback 15.4306 -6.94384 -1.76777
thorax 11.275 -3.31096 -8.07116
lowerneck -1.27473 12.9569 1.50933
upperneck 4.39236 18.1143 -22.2435
head 3.7812 8.03337 -6.13554
rclavicle -6.99722e-014 -1.01778e-013
rhumerus -58.2512 -35.7314 -42.0157
rradius 28.8062
rwrist -26.2432
rhand -15.9494 5.6607
rfingers 7.12502
rthumb 10.2489 -24.0696
lclavicle -6.99722e-014 -1.01778e-013
lhumerus -10.9409 11.4474 60.7521
lradius 66.7144
lwrist -26.7976
lhand -49.8443 -28.8659
lfingers 7.12502
lthumb -22.4397 -0.149471
rfemur -9.17053 1.24217 -8.58708
rtibia 44.335
rfoot -25.9778 1.45531
rtoes -12.1424
lfemur -18.0658 -4.02246 -6.02926
ltibia 58.0517
lfoot 9.18207 -4.28913
ltoes -8.15273
237
root 1.56655 18.6955 2.65417 -185.502 -7.38724 -206.803
lowerback 8.00255 -2.97972 10.6121
upperback 15.4078 -6.81292 -1.75031
thorax 11.2864 -3.23071 -8.11031
lowerneck -1.37279 12.9986 1.52687
upperneck 4.53095 18.2056 -22.2607
head 3.8546 8.05997 -6.12573
rclavicle 7.63333e-014 -3.81667e-014
rhumerus -56.7016 -35.2998 -44.5647
rradius 29.2062
rwrist -25.9475
rhand -15.4708 5.59771
rfingers 7.12502
rthumb 10.7106 -24.1093
lclavicle 7.63333e-014 -3.81667e-014
lhumerus -11.457 10.9643 61.4238
lradius 66.3307
lwrist -27.3728
lhand -49.3782 -28.5934
lfingers 7.12502
lthumb -21.9922 0.17636
rfemur -9.569 1.42142 -8.13426
rtibia 44.3495
rfoot -25.8775 1.70638
rtoes -10.6551
lfemur -18.12 -4.38404 -6.79129
ltibia 58.2249
lfoot 7.77001 -3.47562
ltoes -9.35444
238
root 1.57617 18.704 2.68156 -185.339 -7.19953 -206.437
lowerback 7.98102 -2.88554 10.6902
upperback 15.3997 -6.67755 -1.75446
thorax 11.3149 -3.14867 -8.16403
lowerneck -1.5087 13.0307 1.57254
upperneck 4.65766 18.2856 -22.2962
head 3.93421 8.07946 -6.12386
rclavicle 7.95139e-015 -2.8625e-014
rhumerus -55.0997 -34.8786 -47.0872
rradius 29.5196
rwrist -25.4857
rhand -14.7588 6.09081
rfingers 7.12502
rthumb 11.3974 -23.5794
lclavicle 7.95139e-015 -2.8625e-014
lhumerus -11.9954 10.4723 62.0735
lradius 65.9004
lwrist -27.8997
lhand -48.9659 -28.4315
lfingers 7.12502
lthumb -21.5963 0.384243
rfemur -9.94694 1.6049 -7.71766
rtibia 44.3369
rfoot -25.7781 1.9452
rtoes -9.37583
lfemur -18.1911 -4.70424 -7.60832
ltibia 58.3515
lfoot 6.47825 -2.5255
ltoes -10.0324
239
root 1.58464 18.7124 2.71003 -185.207 -6.9811 -206.057
lowerback 8.00473 -2.77961 10.8051
upperback 15.3998 -6.52403 -1.77305
thorax 11.3293 -3.0552 -8.25101
lowerneck -1.69658 13.0506 1.6198
upperneck 4.83 18.3594 -22.2856
head 4.03121 8.09177 -6.10419
rclavicle 2.70347e-014 1.20861e-013
rhumerus -53.4784 -34.4097 -49.5935
rradius 29.7883
rwrist -24.8886
rhand -14.0622 6.77883
rfingers 7.12502
rthumb 12.0692 -22.8531
lclavicle 2.70347e-014 1.20861e-013
lhumerus -12.523 9.98072 62.7034
lradius 65.3659
lwrist -28.427
lhand -48.3712 -28.5025
lfingers 7.12502
lthumb -21.025 0.377822
rfemur -10.2969 1.76903 -7.28824
rtibia 44.3119
rfoot -25.6659 2.1134
rtoes -8.4911
lfemur -18.2301 -4.9888 -8.42401
ltibia 58.4297
lfoot 5.20323 -1.59895
ltoes -10.5364
240
root 1.59254 18.7217 2.73924 -185.076 -6.7652 -205.673
lowerback 8.04112 -2.67447 10.9006
upperback 15.4026 -6.37432 -1.77628
thorax 11.342 -2.96802 -8.3092
lowerneck -1.86788 13.0699 1.67776
upperneck 4.97946 18.428 -22.3419
head 4.12601 8.09974 -6.10866
rclavicle -3.18055e-014 -4.77083e-014
rhumerus -51.7856 -33.8719 -52.0583
rradius 30.0284
rwrist -24.1441
rhand -13.495 7.36364
rfingers 7.12502
rthumb 12.6161 -22.2354
lclavicle -3.18055e-014 -4.77083e-014
lhumerus -13.0804 9.55399 63.3277
lradius 64.7137
lwrist -29.0501
lhand -47.6008 -28.9115
lfingers 7.12502
lthumb -20.2847 0.0492602
rfemur -10.646 1.86971 -6.85475
rtibia 44.2873
rfoot -25.5495 2.20671
rtoes -8.05166
lfemur -18.2718 -5.24664 -9.25151
ltibia 58.4586
lfoot 3.84677 -0.765228
ltoes -11.0656
241
root 1.60028 18.7295 2.76962 -184.943 -6.56321 -205.323
lowerback 8.10786 -2.57 10.9815
upperback 15.3936 -6.21391 -1.80978
thorax 11.3221 -2.87657 -8.38854
lowerneck -2.00156 13.084 1.77104
upperneck 5.10615 18.4835 -22.3897
head 4.20827 8.10841 -6.11969
rclavicle 0 3.49861e-014
rhumerus -50.1336 -33.2817 -54.4696
rradius 30.2709
rwrist -23.1989
rhand -13.0104 7.9642
rfingers 7.12502
rthumb 13.0832 -21.6054
lclavicle 0 3.49861e-014
lhumerus -13.6726 9.09413 63.9075
lradius 64.0347
lwrist -29.6472
lhand -46.7548 -29.3434
lfingers 7.12502
lthumb -19.4716 -0.298404
rfemur -11.0027 1.91936 -6.45305
rtibia 44.2787
rfoot -25.45 2.21537
rtoes -8.0314
lfemur -18.3195 -5.45203 -10.1219
ltibia 58.4287
lfoot 2.31014 -0.029007
ltoes -10.6941
242
root 1.60751 18.735 2.80081 -184.818 -6.36306 -204.939
lowerback 8.20371 -2.47256 11.0844
upperback 15.3738 -6.05911 -1.82385
thorax 11.2728 -2.78932 -8.45458
lowerneck -2.1324 13.1034 1.83709
upperneck 5.2582 18.5494 -22.4394
head 4.29687 8.11825 -6.12645
rclavicle -1.27222e-014 -3.81667e-014
rhumerus -48.4692 -32.5013 -56.892
rradius 30.629
rwrist -22.201
rhand -12.5916 8.48304
rfingers 7.12502
rthumb 13.4869 -21.0603
lclavicle -1.27222e-014 -3.81667e-014
lhumerus -14.2958 8.56219 64.5146
lradius 63.361
lwrist -30.2051
lhand -46.0324 -29.2241
lfingers 7.12502
lthumb -18.7769 -0.110347
rfemur -11.3616 1.95976 -6.01628
rtibia 44.2908
rfoot -25.3367 2.27614
rtoes -7.64061
lfemur -18.373 -5.57989 -10.9614
ltibia 58.3421
lfoot 0.747682 0.475404
ltoes -10.4877
243
root 1.61485 18.739 2.83223 -184.686 -6.16457 -204.587
lowerback 8.30557 -2.36276 11.1695
upperback 15.357 -5.88413 -1.86367
thorax 11.2268 -2.69162 -8.54014
lowerneck -2.27013 13.114 1.90038
upperneck 5.40151 18.6004 -22.4383
head 4.37655 8.12547 -6.11812
rclavicle -4.6118e-014 -3.81667e-014
rhumerus -46.8164 -31.5736 -59.3678
rradius 31.1424
rwrist -21.2195
rhand -12.2075 8.83756
rfingers 7.12502
rthumb 13.857 -20.6808
lclavicle -4.6118e-014 -3.81667e-014
lhumerus -14.9184 7.93121 65.0595
lradius 62.6696
lwrist -30.7155
lhand -45.7253 -29.0017
lfingers 7.12502
lthumb -18.4814 0.140405
rfemur -11.7347 1.98546 -5.61117
rtibia 44.32
rfoot -25.2402 2.36587
rtoes -7.00553
lfemur -18.4371 -5.61743 -11.8466
ltibia 58.1941
lfoot -0.643349 0.702468
ltoes -11.3525
244
root 1.6223 18.7428 2.86236 -184.549 -5.94092 -204.224
lowerback 8.40054 -2.2481 11.26
upperback 15.3342 -5.7022 -1.8936
thorax 11.1809 -2.59011 -8.61852
lowerneck -2.35374 13.1258 1.93218
upperneck 5.5068 18.6414 -22.4508
head 4.43264 8.13235 -6.115
rclavicle 3.49861e-014 0
rhumerus -45.1726 -30.493 -61.8042
rradius 31.7565
rwrist -20.2177
rhand -11.944 9.1095
rfingers 7.12502
rthumb 14.1109 -20.3914
lclavicle 3.49861e-014 0
lhumerus -15.5667 7.29135 65.6075
lradius 61.926
lwrist -31.1932
lhand -45.7146 -28.8113
lfingers 7.12502
lthumb -18.4711 0.331738
rfemur -12.1252 2.01848 -5.19264
rtibia 44.355
rfoot -25.1436 2.50049
rtoes -6.18354
lfemur -18.5089 -5.55708 -12.7192
ltibia 57.99
lfoot -1.9396 0.793562
ltoes -12.4132
